<svg width="140" height="140" viewBox="0 0 140 140" fill="none" xmlns="http://www.w3.org/2000/svg">
<path d="M70 126C84.8521 126 99.0959 120.1 109.598 109.598C120.1 99.0959 126 84.8521 126 70C126 55.1479 120.1 40.9041 109.598 30.402C99.0959 19.9 84.8521 14 70 14C55.1479 14 40.9041 19.9 30.402 30.402C19.9 40.9041 14 55.1479 14 70C14 84.8521 19.9 99.0959 30.402 109.598C40.9041 120.1 55.1479 126 70 126ZM70 0C79.1925 0 88.2951 1.8106 96.7878 5.32843C105.281 8.84626 112.997 14.0024 119.497 20.5025C125.998 27.0026 131.154 34.7194 134.672 43.2122C138.189 51.7049 140 60.8075 140 70C140 88.5652 132.625 106.37 119.497 119.497C106.37 132.625 88.5652 140 70 140C31.29 140 0 108.5 0 70C0 51.4348 7.37498 33.6301 20.5025 20.5025C33.6301 7.37498 51.4348 0 70 0ZM73.5 35V71.75L105 90.44L99.75 99.05L63 77V35H73.5Z" fill="#FE6236"/>
</svg>
