<svg width="29" height="28" viewBox="0 0 29 28" fill="none" xmlns="http://www.w3.org/2000/svg">
<path d="M14.5466 2.33325C8.1766 2.33325 2.98494 7.52492 2.98494 13.8949C2.98494 15.9366 3.5216 17.9199 4.52494 19.6699L2.8916 25.6666L9.0166 24.0566C10.7083 24.9783 12.6099 25.4683 14.5466 25.4683C20.9166 25.4683 26.1083 20.2766 26.1083 13.9066C26.1083 10.8149 24.9066 7.90992 22.7249 5.72825C20.5433 3.53492 17.6383 2.33325 14.5466 2.33325ZM14.5583 4.28159C17.1249 4.28159 19.5283 5.28492 21.3483 7.10492C23.1566 8.92492 24.1599 11.3399 24.1599 13.9066C24.1599 19.2033 19.8433 23.5083 14.5466 23.5083C12.8199 23.5083 11.1283 23.0533 9.65827 22.1666L9.30827 21.9683L5.66827 22.9249L6.6366 19.3783L6.40327 19.0049C5.4466 17.4999 4.93327 15.7149 4.93327 13.8949C4.94494 8.59825 9.24994 4.28159 14.5583 4.28159ZM10.4516 8.55159C10.2649 8.55159 9.94993 8.62159 9.6816 8.91325C9.42493 9.20492 8.6666 9.91659 8.6666 11.3283C8.6666 12.7516 9.70494 14.1166 9.83327 14.3149C9.9966 14.5133 11.8866 17.4299 14.7916 18.6666C15.4799 18.9816 16.0166 19.1566 16.4366 19.2849C17.1249 19.5066 17.7549 19.4716 18.2566 19.4016C18.8166 19.3199 19.9599 18.7016 20.2049 18.0249C20.4499 17.3483 20.4499 16.7766 20.3799 16.6483C20.2983 16.5316 20.1116 16.4616 19.8199 16.3333C19.5283 16.1699 18.1049 15.4699 17.8483 15.3766C17.5799 15.2833 17.4166 15.2366 17.1949 15.5166C17.0083 15.8083 16.4483 16.4616 16.2849 16.6483C16.1099 16.8466 15.9466 16.8699 15.6666 16.7299C15.3633 16.5783 14.4299 16.2749 13.3333 15.2949C12.4699 14.5249 11.8983 13.5799 11.7233 13.2883C11.5833 13.0083 11.7116 12.8333 11.8516 12.7049C11.9799 12.5766 12.1666 12.3666 12.2833 12.1916C12.4349 12.0283 12.4816 11.8999 12.5749 11.7133C12.6683 11.5149 12.6216 11.3516 12.5516 11.2116C12.4816 11.0833 11.8983 9.63659 11.6533 9.06492C11.4199 8.50492 11.1866 8.57492 10.9999 8.56325C10.8366 8.56325 10.6499 8.55159 10.4516 8.55159Z" fill="#333333"/>
</svg>
